<svg xmlns="http://www.w3.org/2000/svg" xmlns:xlink="http://www.w3.org/1999/xlink" viewbox="0 0 120 120" width="120" height="120" stroke="currentColor" fill="currentColor"><path d="M60 0C26.8 0 0 26.8 0 60c0 26.6 17.2 49 41 56.9 3 0.5 4.1-1.3 4.2-2.8 0-1.4-0.1-6.2-0.1-11.2-15.1 2.8-19-3.7-20.2-7.1-0.7-1.7-3.6-7.1-6.2-8.4-2.1-1.1-5.1-3.9 0-4 4.7-0.1 8.1 4.3 9.2 6.2 5.4 9.1 14 6.5 17.5 4.9 0.5-3.9 2.1-6.5 3.8-8-13.3-1.5-27.3-6.7-27.3-29.7 0-6.5 2.3-11.9 6.2-16.1-0.6-1.5-2.7-7.7 0.6-15.9 0 0 5-1.6 16.5 6.2 4.8-1.3 9.9-2 15-2.1 5.1 0 10.2 0.7 15 2.1 11.5-7.8 16.5-6.2 16.5-6.2 3.3 8.3 1.2 14.4 0.5 15.9 3.8 4.2 6.2 9.5 6.2 16.1 0 23-14 28.1-27.4 29.7 2.2 1.9 4.1 5.5 4.1 11.1 0 8-0.1 14.5-0.1 16.5 0 1.6 1.1 3.4 4.1 2.8A60.1 60.1 0 0 0 120 60c0-33.2-26.8-60-60-60z"  /></svg>