<svg xmlns="http://www.w3.org/2000/svg" xmlns:xlink="http://www.w3.org/1999/xlink" viewbox="0 0 120 120" width="120" height="120" stroke="currentColor" fill="currentColor"><path d="M37.7 112.5c45.3 0 70.1-37.5 70.1-70 0-1.1 0-2.1-0.1-3.2A50.1 50.1 0 0 0 120 26.6a49.9 49.9 0 0 1-14.2 3.8 24.8 24.8 0 0 0 10.9-13.6 49 49 0 0 1-15.7 6A24.6 24.6 0 0 0 59.1 45.2a69.9 69.9 0 0 1-50.8-25.7 24.7 24.7 0 0 0 7.6 32.9A24.9 24.9 0 0 1 4.8 49.3v0.4a24.7 24.7 0 0 0 19.7 24.1 24 24 0 0 1-6.5 0.8 24.2 24.2 0 0 1-4.5-0.4 24.6 24.6 0 0 0 22.9 17.1A49.4 49.4 0 0 1 5.8 101.8a47.4 47.4 0 0 1-5.8-0.3A70.1 70.1 0 0 0 37.7 112.5z"  /></svg>